<svg fill="#585758" version="1.1" id="Capa_1" xmlns="http://www.w3.org/2000/svg" xmlns:xlink="http://www.w3.org/1999/xlink" 
	 width="800px" height="800px" viewBox="0 0 473.826 473.826"
	 xml:space="preserve">
<g>
	<path d="M454.965,218.053h-24.172v-14.75c0-8.975-8.859-16.038-20.334-16.425v-2.451c0-12.427-13.832-22.188-32.266-22.861
		c-5.635-10.854-21.096-18.461-39.77-18.461c-23.592,0-42.072,12.133-42.072,27.622v47.326h-118.87v-47.326
		c0-15.489-18.477-27.622-42.065-27.622c-18.677,0-34.14,7.607-39.777,18.461c-18.432,0.672-32.264,10.433-32.264,22.859v2.453
		c-11.477,0.387-20.336,7.451-20.336,16.425v14.75H18.863C8.462,218.053,0,226.513,0,236.912c0,10.4,8.464,18.861,18.869,18.861
		H43.04v14.756c0,8.973,8.859,16.035,20.336,16.422v2.443c0,12.425,13.819,22.184,32.236,22.861
		c2.213,4.303,6.004,8.16,11.208,11.279c7.729,4.635,17.885,7.187,28.597,7.187c23.588,0,42.065-12.132,42.065-27.619v-47.33h118.87
		v47.326c0,15.489,18.48,27.623,42.072,27.623c18.672,0,34.133-7.606,39.771-18.46c18.432-0.676,32.264-10.438,32.264-22.861v-2.449
		c11.477-0.388,20.334-7.449,20.334-16.422v-14.754l24.172-0.002c10.4,0,18.861-8.461,18.861-18.861
		C473.826,226.513,465.365,218.053,454.965,218.053z M41.625,243.774H18.869c-3.788,0-6.869-3.079-6.869-6.862
		c0-3.782,3.079-6.857,6.863-6.857h22.762V243.774z M55.04,270.531v-67.228c0-1.482,3.141-4.129,8.336-4.432v76.087
		C58.181,274.656,55.04,272.011,55.04,270.531z M75.376,289.395v-104.97c0-4.458,7.24-9.559,17.968-10.668l0.003,126.312
		C82.617,298.96,75.376,293.857,75.376,289.395z M165.482,218.053v37.721v47.33c0,7.388-12.347,15.619-30.065,15.619
		c-8.446,0-16.62-1.997-22.426-5.478c-4.858-2.914-7.644-6.61-7.643-10.146l-0.003-132.373c0-7.389,12.351-15.622,30.073-15.622
		c17.718,0,30.065,8.233,30.065,15.622L165.482,218.053L165.482,218.053z M293.176,243.774H177.482v-13.721h115.694V243.774z
		 M338.424,318.723c-17.723,0-30.072-8.233-30.072-15.623V170.727c0-7.389,12.35-15.622,30.072-15.622
		c17.719,0,30.066,8.233,30.066,15.622l0.002,132.372C368.49,310.49,356.141,318.723,338.424,318.723z M398.459,289.401
		c0,4.457-7.238,9.558-17.967,10.669l-0.004-126.314c10.73,1.111,17.971,6.212,17.971,10.67V289.401z M418.793,270.531
		c0,1.479-3.141,4.125-8.334,4.428v-76.087c5.193,0.303,8.334,2.95,8.334,4.432V270.531L418.793,270.531z M454.965,243.774
		l-22.75,0.002v-13.723h22.75c3.785,0,6.861,3.077,6.861,6.858C461.826,240.695,458.748,243.774,454.965,243.774z"/>
</g>
</svg>